<mxfile host="app.diagrams.net" modified="2024-03-28T04:00:07.960Z" agent="Mozilla/5.0 (X11; Linux x86_64) AppleWebKit/537.36 (KHTML, like Gecko) Chrome/123.0.0.0 Safari/537.36" etag="Su6_sNapfoluPpErxb5Q" version="24.2.0" type="github">
  <diagram id="3c8rUc3TOiFh28x1inGP" name="페이지-2">
    <mxGraphModel dx="994" dy="600" grid="1" gridSize="10" guides="1" tooltips="1" connect="1" arrows="1" fold="1" page="1" pageScale="1" pageWidth="827" pageHeight="1169" math="0" shadow="0">
      <root>
        <mxCell id="0" />
        <mxCell id="1" parent="0" />
        <mxCell id="c_YbgUsABgY9rZE-nUVt-1" value="" style="ellipse;html=1;shape=startState;fillColor=#000000;strokeColor=#ff0000;" vertex="1" parent="1">
          <mxGeometry x="325" y="100" width="30" height="30" as="geometry" />
        </mxCell>
        <mxCell id="c_YbgUsABgY9rZE-nUVt-2" value="" style="edgeStyle=orthogonalEdgeStyle;html=1;verticalAlign=bottom;endArrow=open;endSize=8;strokeColor=#6c8ebf;rounded=0;entryX=0.5;entryY=0;entryDx=0;entryDy=0;fillColor=#dae8fc;" edge="1" source="c_YbgUsABgY9rZE-nUVt-1" parent="1" target="c_YbgUsABgY9rZE-nUVt-5">
          <mxGeometry relative="1" as="geometry">
            <mxPoint x="340" y="190" as="targetPoint" />
          </mxGeometry>
        </mxCell>
        <mxCell id="c_YbgUsABgY9rZE-nUVt-8" value="" style="edgeStyle=orthogonalEdgeStyle;rounded=0;orthogonalLoop=1;jettySize=auto;html=1;" edge="1" parent="1" source="c_YbgUsABgY9rZE-nUVt-5" target="c_YbgUsABgY9rZE-nUVt-7">
          <mxGeometry relative="1" as="geometry" />
        </mxCell>
        <mxCell id="c_YbgUsABgY9rZE-nUVt-5" value="초기화" style="rounded=1;whiteSpace=wrap;html=1;arcSize=40;fillColor=#dae8fc;strokeColor=#6c8ebf;" vertex="1" parent="1">
          <mxGeometry x="280" y="180" width="120" height="40" as="geometry" />
        </mxCell>
        <mxCell id="c_YbgUsABgY9rZE-nUVt-6" value="" style="edgeStyle=orthogonalEdgeStyle;html=1;verticalAlign=bottom;endArrow=open;endSize=8;strokeColor=#6c8ebf;rounded=0;fillColor=#dae8fc;" edge="1" source="c_YbgUsABgY9rZE-nUVt-5" parent="1">
          <mxGeometry relative="1" as="geometry">
            <mxPoint x="340" y="270" as="targetPoint" />
          </mxGeometry>
        </mxCell>
        <mxCell id="c_YbgUsABgY9rZE-nUVt-10" value="" style="edgeStyle=orthogonalEdgeStyle;rounded=0;orthogonalLoop=1;jettySize=auto;html=1;" edge="1" parent="1" source="c_YbgUsABgY9rZE-nUVt-7" target="c_YbgUsABgY9rZE-nUVt-9">
          <mxGeometry relative="1" as="geometry" />
        </mxCell>
        <mxCell id="c_YbgUsABgY9rZE-nUVt-7" value="read ios" style="whiteSpace=wrap;html=1;fillColor=#dae8fc;strokeColor=#6c8ebf;rounded=1;arcSize=40;" vertex="1" parent="1">
          <mxGeometry x="280" y="290" width="120" height="40" as="geometry" />
        </mxCell>
        <mxCell id="sul6DwVgs9OJ4gU31PUj-2" value="" style="edgeStyle=orthogonalEdgeStyle;rounded=0;orthogonalLoop=1;jettySize=auto;html=1;" edge="1" parent="1" source="c_YbgUsABgY9rZE-nUVt-9" target="sul6DwVgs9OJ4gU31PUj-1">
          <mxGeometry relative="1" as="geometry" />
        </mxCell>
        <mxCell id="c_YbgUsABgY9rZE-nUVt-9" value="계산" style="whiteSpace=wrap;html=1;fillColor=#dae8fc;strokeColor=#6c8ebf;rounded=1;arcSize=40;" vertex="1" parent="1">
          <mxGeometry x="280" y="380" width="120" height="40" as="geometry" />
        </mxCell>
        <mxCell id="sul6DwVgs9OJ4gU31PUj-4" value="" style="edgeStyle=orthogonalEdgeStyle;rounded=0;orthogonalLoop=1;jettySize=auto;html=1;" edge="1" parent="1" source="sul6DwVgs9OJ4gU31PUj-1" target="sul6DwVgs9OJ4gU31PUj-3">
          <mxGeometry relative="1" as="geometry" />
        </mxCell>
        <mxCell id="sul6DwVgs9OJ4gU31PUj-1" value="안전 코드" style="whiteSpace=wrap;html=1;fillColor=#dae8fc;strokeColor=#6c8ebf;rounded=1;arcSize=40;" vertex="1" parent="1">
          <mxGeometry x="280" y="470" width="120" height="40" as="geometry" />
        </mxCell>
        <mxCell id="sul6DwVgs9OJ4gU31PUj-5" style="edgeStyle=orthogonalEdgeStyle;rounded=0;orthogonalLoop=1;jettySize=auto;html=1;entryX=1;entryY=0.25;entryDx=0;entryDy=0;" edge="1" parent="1" source="sul6DwVgs9OJ4gU31PUj-3" target="c_YbgUsABgY9rZE-nUVt-7">
          <mxGeometry relative="1" as="geometry">
            <Array as="points">
              <mxPoint x="565" y="580" />
              <mxPoint x="565" y="300" />
            </Array>
          </mxGeometry>
        </mxCell>
        <mxCell id="sul6DwVgs9OJ4gU31PUj-3" value="write" style="whiteSpace=wrap;html=1;fillColor=#dae8fc;strokeColor=#6c8ebf;rounded=1;arcSize=40;" vertex="1" parent="1">
          <mxGeometry x="280" y="560" width="120" height="40" as="geometry" />
        </mxCell>
      </root>
    </mxGraphModel>
  </diagram>
</mxfile>
